<svg aria-hidden="true" style="position: absolute; width: 0; height: 0; overflow: hidden;" version="1.1" xmlns="http://www.w3.org/2000/svg" xmlns:xlink="http://www.w3.org/1999/xlink">
<defs>
<symbol id="icon-arrow-right" viewBox="0 0 32 32">
<path stroke-linejoin="round" stroke-linecap="round" stroke-miterlimit="4" stroke-width="2.6667" d="M6.667 16h18.667"></path>
<path stroke-linejoin="round" stroke-linecap="round" stroke-miterlimit="4" stroke-width="2.6667" d="M16 25.334l9.333-9.333-9.333-9.333"></path>
</symbol>
<symbol id="icon-arrow-left" viewBox="0 0 32 32">
<path stroke-linejoin="round" stroke-linecap="round" stroke-miterlimit="4" stroke-width="2.6667" d="M25.333 16h-18.667"></path>
<path stroke-linejoin="round" stroke-linecap="round" stroke-miterlimit="4" stroke-width="2.6667" d="M16 25.334l-9.333-9.333 9.333-9.333"></path>
</symbol>
<symbol id="icon-heart" viewBox="0 0 32 32">
<path fill="#ff6b08" style="fill: var(--color1, #ff6b08)" d="M16 30.583l-2.24-2.24c-8.32-7.36-13.76-12.32-13.76-18.4 0-4.96 3.84-8.8 8.8-8.8 2.72 0 5.44 1.28 7.2 3.36 1.76-2.080 4.48-3.36 7.2-3.36 4.96 0 8.8 3.84 8.8 8.8 0 6.080-5.44 11.040-13.76 18.4l-2.24 2.24z"></path>
</symbol>
<symbol id="icon-heart1" viewBox="0 0 32 32">
<path d="M16 30.583l-2.24-2.24c-8.32-7.36-13.76-12.32-13.76-18.4 0-4.96 3.84-8.8 8.8-8.8 2.72 0 5.44 1.28 7.2 3.36 1.76-2.080 4.48-3.36 7.2-3.36 4.96 0 8.8 3.84 8.8 8.8 0 6.080-5.44 11.040-13.76 18.4l-2.24 2.24z"></path>
</symbol>
<symbol id="icon-search1" viewBox="0 0 32 32">
<path fill="none" stroke="#fff" style="stroke: var(--color2, #fff)" stroke-linejoin="round" stroke-linecap="round" stroke-miterlimit="4" stroke-width="2.6667" d="M14.667 25.333c5.891 0 10.667-4.776 10.667-10.667s-4.776-10.667-10.667-10.667c-5.891 0-10.667 4.776-10.667 10.667s4.776 10.667 10.667 10.667z"></path>
<path fill="none" stroke="#fff" style="stroke: var(--color2, #fff)" stroke-linejoin="round" stroke-linecap="round" stroke-miterlimit="4" stroke-width="2.6667" d="M28 28.001l-5.8-5.8"></path>
</symbol>
<symbol id="icon-search" viewBox="0 0 32 32">
<path stroke-linejoin="round" stroke-linecap="round" stroke-miterlimit="4" stroke-width="2.6667" d="M14.667 25.333c5.891 0 10.667-4.776 10.667-10.667s-4.776-10.667-10.667-10.667c-5.891 0-10.667 4.776-10.667 10.667s4.776 10.667 10.667 10.667z"></path>
<path stroke-linejoin="round" stroke-linecap="round" stroke-miterlimit="4" stroke-width="2.6667" d="M28 28.001l-5.8-5.8"></path>
</symbol>
<symbol id="icon-film" viewBox="0 0 32 32">
<path fill="none" stroke="#818181" style="stroke: var(--color3, #818181)" stroke-linejoin="round" stroke-linecap="round" stroke-miterlimit="4" stroke-width="2.6667" d="M26.427 2.667h-20.853c-1.605 0-2.907 1.301-2.907 2.907v20.853c0 1.605 1.301 2.907 2.907 2.907h20.853c1.605 0 2.907-1.301 2.907-2.907v-20.853c0-1.605-1.301-2.907-2.907-2.907z"></path>
<path fill="none" stroke="#818181" style="stroke: var(--color3, #818181)" stroke-linejoin="round" stroke-linecap="round" stroke-miterlimit="4" stroke-width="2.6667" d="M9.333 2.667v26.667"></path>
<path fill="none" stroke="#818181" style="stroke: var(--color3, #818181)" stroke-linejoin="round" stroke-linecap="round" stroke-miterlimit="4" stroke-width="2.6667" d="M22.667 2.667v26.667"></path>
<path fill="none" stroke="#818181" style="stroke: var(--color3, #818181)" stroke-linejoin="round" stroke-linecap="round" stroke-miterlimit="4" stroke-width="2.6667" d="M2.667 16h26.667"></path>
<path fill="none" stroke="#818181" style="stroke: var(--color3, #818181)" stroke-linejoin="round" stroke-linecap="round" stroke-miterlimit="4" stroke-width="2.6667" d="M2.667 9.333h6.667"></path>
<path fill="none" stroke="#818181" style="stroke: var(--color3, #818181)" stroke-linejoin="round" stroke-linecap="round" stroke-miterlimit="4" stroke-width="2.6667" d="M2.667 22.667h6.667"></path>
<path fill="none" stroke="#818181" style="stroke: var(--color3, #818181)" stroke-linejoin="round" stroke-linecap="round" stroke-miterlimit="4" stroke-width="2.6667" d="M22.667 22.667h6.667"></path>
<path fill="none" stroke="#818181" style="stroke: var(--color3, #818181)" stroke-linejoin="round" stroke-linecap="round" stroke-miterlimit="4" stroke-width="2.6667" d="M22.667 9.333h6.667"></path>
</symbol>
<symbol id="icon-cross" viewBox="0 0 32 32">
<path d="M31.708 25.708c-0-0-0-0-0-0l-9.708-9.708 9.708-9.708c0-0 0-0 0-0 0.105-0.105 0.18-0.227 0.229-0.357 0.133-0.356 0.057-0.771-0.229-1.057l-4.586-4.586c-0.286-0.286-0.702-0.361-1.057-0.229-0.13 0.048-0.252 0.124-0.357 0.228 0 0-0 0-0 0l-9.708 9.708-9.708-9.708c-0-0-0-0-0-0-0.105-0.104-0.227-0.18-0.357-0.228-0.356-0.133-0.771-0.057-1.057 0.229l-4.586 4.586c-0.286 0.286-0.361 0.702-0.229 1.057 0.049 0.13 0.124 0.252 0.229 0.357 0 0 0 0 0 0l9.708 9.708-9.708 9.708c-0 0-0 0-0 0-0.104 0.105-0.18 0.227-0.229 0.357-0.133 0.355-0.057 0.771 0.229 1.057l4.586 4.586c0.286 0.286 0.702 0.361 1.057 0.229 0.13-0.049 0.252-0.124 0.357-0.229 0-0 0-0 0-0l9.708-9.708 9.708 9.708c0 0 0 0 0 0 0.105 0.105 0.227 0.18 0.357 0.229 0.356 0.133 0.771 0.057 1.057-0.229l4.586-4.586c0.286-0.286 0.362-0.702 0.229-1.057-0.049-0.13-0.124-0.252-0.229-0.357z"></path>
</symbol>
<symbol id="icon-scrollUp" viewBox="0 0 512 512">
<path fill="#ff6b08" d="M256 0C114.6 0 0 114.6 0 256s114.6 256 256 256c141.4 0 256-114.6 256-256S397.4 0 256 0zM382.8 246.1C380.3 252.1 374.5 256 368 256h-64v96c0 17.67-14.33 32-32 32h-32c-17.67 0-32-14.33-32-32V256h-64C137.5 256 131.7 252.1 129.2 246.1C126.7 240.1 128.1 233.3 132.7 228.7l112-112c6.248-6.248 16.38-6.248 22.62 0l112 112C383.9 233.3 385.3 240.1 382.8 246.1z"/>
</symbol>
<symbol id="exit-svgrepo-com1" viewBox="0 0 32 32">
<path fill="#000" style="fill: var(--color1, #000)" d="M29.711 0h-27.421c-0.49 0-0.889 0.399-0.889 0.889v30.223c0 0.49 0.399 0.889 0.889 0.889h27.421c0.49 0 0.889-0.399 0.889-0.889v-30.223c0-0.49-0.399-0.889-0.889-0.889zM25.86 5.103l-3.87 2.711c-0.16 0.112-0.291 0.044-0.291-0.152v-0.917c0-0.195-0.16-0.355-0.355-0.355h-15.14c-0.195 0-0.355-0.16-0.355-0.355v-2.272c0-0.195 0.16-0.355 0.355-0.355h15.14c0.195 0 0.355-0.16 0.355-0.355v-0.917c0-0.195 0.131-0.264 0.291-0.151l3.87 2.711c0.16 0.112 0.16 0.296 0 0.408z"></path>
<path fill="#fff" style="fill: var(--color2, #fff)" d="M21.708 23.291c-0.101-0.015-3.072-1.895-3.072-1.895-0.15-0.098-0.248-0.258-0.261-0.438l-0.105-1.346-1.559 2.032 2.526 2.962c0.131 0.147 0.19 0.343 0.16 0.539l-0.68 4.307c-0.012 0.077-0.041 0.146-0.072 0.213-0.195 0.42-0.586 0.737-1.076 0.737-0.638 0-1.155-0.517-1.155-1.155 0-0.137 0.59-3.684 0.59-3.684l-2.021-2.682-0.293 3.156c-0.020 0.291-0.232 0.536-0.52 0.595 0 0-4.367 0.905-4.487 0.905-0.638 0-1.155-0.517-1.155-1.155 0-0.578 0.425-1.056 0.98-1.14 0.018-0.006 2.973-0.616 2.973-0.616l0.095-3.935c0.007-0.128 0.052-0.248 0.127-0.35l3.265-3.572-2.088-0.229c0 0-0.585 2.029-0.631 2.092-0.197 0.356-0.576 0.597-1.011 0.597-0.638 0-1.155-0.517-1.155-1.155 0-0.186 0.961-3.501 0.961-3.501 0.079-0.284 0.337-0.477 0.627-0.477 0.023 0 0.049 0 0.072 0.003l4.653 0.51c0.114 0.013 0.222 0.056 0.314 0.121l0.248 0.18c-0.204-0.377-0.32-0.808-0.32-1.266 0-1.469 1.191-2.66 2.66-2.66s2.66 1.191 2.66 2.66-1.191 2.66-2.66 2.66c-0.165 0-0.327-0.016-0.484-0.045l0.288 0.209c0.157 0.111 0.252 0.288 0.268 0.477l0.232 2.98c0 0 2.202 1.449 2.248 1.519 1.19 0.865 0.168 2.597-1.143 1.847z"></path>
</symbol>
<symbol id="exit-svgrepo-com" viewBox="0 0 32 32">
<path fill="#b39a7c" style="fill: var(--color3, #b39a7c)" d="M20.312 2.829h-5.256c-0.242 0-0.437 0.196-0.437 0.437v25.73c0 0.096 0.078 0.174 0.174 0.174h5.783c0.096 0 0.174-0.078 0.174-0.174v-25.73c0-0.242-0.196-0.437-0.437-0.437z"></path>
<path fill="#a78967" style="fill: var(--color4, #a78967)" d="M16.959 27.936v-23.572c0-0.846 0.688-1.535 1.535-1.535h-3.438c-0.242 0-0.437 0.196-0.437 0.437v25.73c0 0.096 0.078 0.174 0.174 0.174h3.401c-0.681 0-1.235-0.554-1.235-1.235z"></path>
<path fill="#ed8800" style="fill: var(--color5, #ed8800)" d="M5.052 20.849l-4.412-6.933c-0.107-0.168-0.107-0.382 0-0.549l4.412-6.933c0.094-0.148 0.257-0.237 0.432-0.237h25.533c0.283 0 0.512 0.229 0.512 0.512v13.865c0 0.283-0.229 0.512-0.512 0.512h-25.533c-0.175 0-0.338-0.089-0.432-0.237z"></path>
<path fill="#cc7400" style="fill: var(--color6, #cc7400)" d="M7.937 6.198h-2.735l-4.639 7.291c-0.060 0.094-0.060 0.214 0 0.307l4.639 7.29h2.735l-4.737-7.444 4.737-7.444z"></path>
<path fill="#aa6101" style="fill: var(--color7, #aa6101)" d="M11.958 11.453c0.279 0 0.505-0.226 0.505-0.505s-0.226-0.505-0.505-0.505h-3.368c-0.279 0-0.505 0.226-0.505 0.505v2.19h-2.317l0.485-0.485c0.197-0.197 0.197-0.517 0-0.714s-0.517-0.197-0.715 0l-1.347 1.347c-0.016 0.016-0.031 0.034-0.044 0.052-0.003 0.004-0.006 0.008-0.009 0.012-0.027 0.037-0.047 0.077-0.063 0.118-0.002 0.004-0.003 0.008-0.004 0.012-0.007 0.021-0.013 0.042-0.017 0.063-0 0.001-0 0.001-0 0.002-0.004 0.022-0.007 0.043-0.008 0.065-0 0.005-0.001 0.010-0.001 0.016-0.001 0.022-0.001 0.043 0.001 0.065 0 0 0 0.001 0 0.001 0.002 0.022 0.006 0.044 0.011 0.066 0.001 0.005 0.002 0.009 0.003 0.014 0.006 0.022 0.013 0.044 0.021 0.065 0 0 0 0 0 0s0 0.001 0 0.001c0.009 0.021 0.019 0.040 0.030 0.060 0.002 0.004 0.005 0.008 0.007 0.012 0.012 0.019 0.024 0.037 0.039 0.055 0.002 0.002 0.003 0.004 0.005 0.005 0.009 0.011 0.018 0.021 0.028 0.031l1.347 1.347c0.099 0.099 0.228 0.148 0.357 0.148s0.259-0.049 0.357-0.148c0.197-0.197 0.197-0.517 0-0.714l-0.485-0.485h2.317v2.19c0 0.279 0.226 0.505 0.505 0.505h3.368c0.279 0 0.505-0.226 0.505-0.505s-0.226-0.505-0.505-0.505h-2.863v-1.684h2.189c0.279 0 0.505-0.226 0.505-0.505s-0.226-0.505-0.505-0.505h-2.189v-1.684h2.863z"></path>
<path fill="#aa6101" style="fill: var(--color7, #aa6101)" d="M18.998 10.543c-0.223-0.167-0.54-0.122-0.707 0.101l-1.617 2.156-1.617-2.156c-0.167-0.223-0.484-0.268-0.707-0.101s-0.268 0.484-0.101 0.707l1.794 2.392-1.794 2.392c-0.167 0.223-0.122 0.54 0.101 0.707 0.091 0.068 0.197 0.101 0.303 0.101 0.154 0 0.305-0.070 0.405-0.202l1.617-2.156 1.617 2.156c0.099 0.132 0.251 0.202 0.405 0.202 0.105 0 0.212-0.033 0.303-0.101 0.223-0.167 0.268-0.484 0.101-0.707l-1.794-2.392 1.794-2.392c0.167-0.223 0.122-0.54-0.101-0.707z"></path>
<path fill="#aa6101" style="fill: var(--color7, #aa6101)" d="M21.39 10.442c-0.279 0-0.505 0.226-0.505 0.505v5.389c0 0.279 0.226 0.505 0.505 0.505s0.505-0.226 0.505-0.505v-5.389c0-0.279-0.226-0.505-0.505-0.505z"></path>
<path fill="#aa6101" style="fill: var(--color7, #aa6101)" d="M27.453 10.442h-2.695c-0.279 0-0.505 0.226-0.505 0.505s0.226 0.505 0.505 0.505h0.842v4.884c0 0.279 0.226 0.505 0.505 0.505s0.505-0.226 0.505-0.505v-4.884h0.842c0.279 0 0.505-0.226 0.505-0.505s-0.226-0.505-0.505-0.505z"></path>
<path fill="#000" style="fill: var(--color1, #000)" d="M11.958 11.453c0.279 0 0.505-0.226 0.505-0.505s-0.226-0.505-0.505-0.505h-3.368c-0.279 0-0.505 0.226-0.505 0.505v2.19h-2.317l0.485-0.485c0.197-0.197 0.197-0.517 0-0.714s-0.517-0.197-0.715 0l-1.347 1.347c-0.016 0.016-0.031 0.034-0.044 0.052-0.003 0.004-0.006 0.008-0.009 0.013-0.027 0.037-0.047 0.077-0.063 0.118-0.002 0.004-0.003 0.008-0.004 0.012-0.007 0.021-0.013 0.042-0.017 0.063-0 0.001-0 0.001-0 0.002-0.004 0.022-0.007 0.043-0.008 0.065-0 0.005-0.001 0.010-0.001 0.016-0.001 0.022-0.001 0.043 0.001 0.065 0 0 0 0.001 0 0.001 0.002 0.022 0.006 0.044 0.011 0.066 0.001 0.005 0.002 0.009 0.003 0.014 0.006 0.022 0.013 0.044 0.021 0.065 0 0 0 0 0 0s0 0.001 0 0.001c0.009 0.021 0.019 0.040 0.030 0.060 0.002 0.004 0.005 0.008 0.007 0.012 0.012 0.019 0.024 0.037 0.039 0.055 0.002 0.002 0.003 0.004 0.005 0.005 0.009 0.011 0.018 0.021 0.028 0.031l1.347 1.347c0.099 0.099 0.228 0.148 0.357 0.148s0.259-0.049 0.357-0.148c0.197-0.197 0.197-0.517 0-0.714l-0.485-0.485h2.317v2.189c0 0.279 0.226 0.505 0.505 0.505h3.368c0.279 0 0.505-0.226 0.505-0.505s-0.226-0.505-0.505-0.505h-2.863v-1.684h2.189c0.279 0 0.505-0.226 0.505-0.505s-0.226-0.505-0.505-0.505h-2.189v-1.684h2.863z"></path>
<path fill="#000" style="fill: var(--color1, #000)" d="M15.057 10.644c-0.167-0.223-0.484-0.268-0.707-0.101s-0.268 0.484-0.101 0.707l1.794 2.392-1.794 2.392c-0.167 0.223-0.122 0.54 0.101 0.707 0.091 0.068 0.197 0.101 0.303 0.101 0.154 0 0.305-0.070 0.405-0.202l1.617-2.156 1.617 2.156c0.099 0.132 0.251 0.202 0.405 0.202 0.105 0 0.212-0.033 0.303-0.101 0.223-0.167 0.268-0.484 0.101-0.707l-1.794-2.392 1.794-2.392c0.167-0.223 0.122-0.54-0.101-0.707s-0.54-0.122-0.707 0.101l-1.617 2.156-1.617-2.156z"></path>
<path fill="#000" style="fill: var(--color1, #000)" d="M21.39 16.842c0.279 0 0.505-0.226 0.505-0.505v-5.389c0-0.279-0.226-0.505-0.505-0.505s-0.505 0.226-0.505 0.505v5.389c0 0.279 0.226 0.505 0.505 0.505z"></path>
<path fill="#000" style="fill: var(--color1, #000)" d="M24.758 11.453h0.842v4.884c0 0.279 0.226 0.505 0.505 0.505s0.505-0.226 0.505-0.505v-4.884h0.842c0.279 0 0.505-0.226 0.505-0.505s-0.226-0.505-0.505-0.505h-2.695c-0.279 0-0.505 0.226-0.505 0.505s0.226 0.505 0.505 0.505z"></path>
<path fill="#000" style="fill: var(--color1, #000)" d="M31.495 5.726h-10.274v-2.863c0-0.279-0.226-0.505-0.505-0.505h-6.063c-0.279 0-0.505 0.226-0.505 0.505v2.863h-8.926c-0.173 0-0.334 0.088-0.426 0.234l-4.716 7.41c-0.105 0.165-0.105 0.377 0 0.543l4.716 7.41c0.093 0.146 0.253 0.234 0.426 0.234h8.926v7.579c0 0.279 0.226 0.505 0.505 0.505h6.063c0.279 0 0.505-0.226 0.505-0.505v-7.579h10.274c0.279 0 0.505-0.226 0.505-0.505v-14.821c-0-0.279-0.226-0.505-0.505-0.505zM20.211 28.632h-5.053v-7.074h3.032v2.189c0 0.279 0.226 0.505 0.505 0.505s0.505-0.226 0.505-0.505v-2.189h1.011v7.074zM30.989 20.547h-25.491l-4.394-6.905 4.394-6.905h10.4c0.279 0 0.505-0.226 0.505-0.505s-0.226-0.505-0.505-0.505h-0.741v-2.358h5.053v2.358h-2.311c-0.279 0-0.505 0.226-0.505 0.505s0.226 0.505 0.505 0.505h13.090v13.811z"></path>
</symbol>
<symbol id="exit-logout-svgrepo-com2" viewBox="0 0 32 32">
<path d="M30.698 16l-10.466-7.959 0.82 5.58h-12.285v4.923h12.285l-0.82 5.416z"></path>
<path fill="#61acd2" style="fill: var(--color9, #61acd2)" d="M24.44 4.103h-19.856v23.795h19.856v3.282h-21.52c-0.906 0-1.618-0.735-1.618-1.641v-27.077c0-0.906 0.712-1.641 1.618-1.641h21.52v3.282z"></path>
<path fill="#000" style="fill: var(--color1, #000)" d="M31.195 15.347l-10.466-7.959c-0.265-0.202-0.627-0.223-0.914-0.053s-0.443 0.496-0.395 0.826l0.682 4.64h-11.358c-0.453 0-0.798 0.367-0.798 0.821v4.923c0 0.453 0.345 0.82 0.798 0.82h11.354l-0.678 4.472c-0.050 0.33 0.105 0.658 0.393 0.829 0.13 0.077 0.274 0.115 0.419 0.115 0.176 0 0.351-0.056 0.497-0.167l10.466-7.959c0.204-0.155 0.324-0.397 0.324-0.653s-0.12-0.498-0.324-0.653zM21.347 22.081l0.517-3.414c0.036-0.236-0.033-0.477-0.189-0.658s-0.383-0.286-0.622-0.286h-11.464v-3.282h11.465c0.238 0 0.465-0.104 0.621-0.284s0.226-0.42 0.191-0.656l-0.528-3.59 8.006 6.089-7.996 6.081z"></path>
<path fill="#000" style="fill: var(--color1, #000)" d="M24.417 27.077h-19.013v-22.154h19.013c0.453 0 0.843-0.367 0.843-0.821v-3.282c0-0.453-0.39-0.821-0.843-0.821h-21.497c-1.357 0-2.439 1.104-2.439 2.462v27.077c0 1.357 1.082 2.462 2.439 2.462h21.497c0.453 0 0.843-0.367 0.843-0.82v-3.282c0-0.453-0.39-0.82-0.843-0.82zM23.619 30.359h-20.7c-0.452 0-0.798-0.368-0.798-0.82v-27.077c0-0.452 0.345-0.821 0.798-0.821h20.7v1.641h-19.059c-0.453 0-0.798 0.367-0.798 0.821v23.795c0 0.453 0.345 0.82 0.798 0.82h19.059v1.641z"></path>
</symbol>
<symbol id="exit-logout-svgrepo-com" viewBox="0 0 32 32">
<path fill="#ef3e25" style="fill: var(--color10, #ef3e25)" d="M5.301 3.503h21.401v2.432h-21.401v-2.432z"></path>
<path fill="#f25b22" style="fill: var(--color11, #f25b22)" d="M30.593 16.636l-14.591 11.673-14.591-11.673h3.891v-10.7h21.401v10.7z"></path>
<path fill="#f36e24" style="fill: var(--color12, #f36e24)" d="M5.301 5.935v10.7h-3.891l14.591 11.673v-22.374z"></path>
<path fill="#000" style="fill: var(--color1, #000)" d="M27.195 16.166v-13.132h-22.389v13.132h-4.806l16 12.8 16-12.8h-4.806zM5.794 4.022h20.413v1.444h-20.413v-1.444zM24.927 20.559l-8.927 7.142-8.927-7.142h5.522v-0.988h-6.758l-3.021-2.417h2.977v-10.7h20.413v10.7h2.977l-3.021 2.417h-6.758v0.988l5.522-0z"></path>
<path fill="#fff" style="fill: var(--color2, #fff)" d="M7.237 16.182h4.385v-0.988h-3.397v-2.417h3.397v-0.988h-3.397v-2.417h3.397v-0.988h-4.385z"></path>
<path fill="#fff" style="fill: var(--color2, #fff)" d="M16.846 9.059l-0.882-0.446-1.435 2.841-1.498-2.808-0.872 0.465 1.825 3.421-1.748 3.461 0.882 0.446 1.435-2.841 1.498 2.808 0.872-0.465-1.825-3.421z"></path>
<path fill="#fff" style="fill: var(--color2, #fff)" d="M17.938 8.392h0.988v7.782h-0.988v-7.782z"></path>
<path fill="#fff" style="fill: var(--color2, #fff)" d="M21.829 16.174h0.988v-6.802h1.938v-0.988h-4.864v0.988h1.938z"></path>
<path fill="#fff" style="fill: var(--color2, #fff)" d="M15.514 19.571h0.973v0.988h-0.973v-0.988z"></path>
<path fill="#000" style="fill: var(--color1, #000)" d="M17.459 19.571h0.973v0.988h-0.973v-0.988z"></path>
<path fill="#000" style="fill: var(--color1, #000)" d="M13.568 19.571h0.973v0.988h-0.973v-0.988z"></path>
</symbol>
<symbol id="emergency-exit-door-svgrepo-com" viewBox="0 0 32 32">
<path fill="#9b9b9a" style="fill: var(--color13, #9b9b9a)" d="M10.395 23.937v1.391l-1.734 1.316h-2.935v-22.057h20.488v21.968h-6.336l1.56-1.52v-18.273h-11.044v12.557z"></path>
<path fill="#fcea2b" style="fill: var(--color14, #fcea2b)" d="M15.689 16.352v0.984l1.849 2.278c0.188 0.348 0.309 0.758 0.335 1.194l0 0.008 0.18 4.067c0.038 0.791-0.366 1.209-0.771 1.209-0.431 0-0.765-0.406-0.837-1.17l-0.468-3.849-3.074-2.619c-0.296-0.257-0.486-0.631-0.495-1.050l-0-0.002c0.016-0.426 0.14-0.819 0.346-1.158l-0.006 0.011 1.464-2.643c0.507-1.014 1.003-1.374 1.672-1.374 0.66 0.008 1.192 0.545 1.192 1.206 0 0.008-0 0.017-0 0.025l0-0.001z"></path>
<path fill="#fcea2b" style="fill: var(--color14, #fcea2b)" d="M11.622 19.262l-0.991 1.498-2.814 1.364c-0.236 0.095-0.4 0.322-0.4 0.587 0 0.067 0.010 0.131 0.030 0.191l-0.001-0.004c0.069 0.23 0.279 0.395 0.527 0.395 0.066 0 0.13-0.012 0.189-0.033l-0.004 0.001 2.682-0.822c0.383-0.131 0.71-0.343 0.971-0.618l0.001-0.001 2.272-2.3z"></path>
<path fill="#fcea2b" style="fill: var(--color14, #fcea2b)" d="M19.655 10.523c0 0.802-0.65 1.451-1.451 1.451s-1.451-0.65-1.451-1.451c0-0.802 0.65-1.451 1.451-1.451s1.451 0.65 1.451 1.451z"></path>
<path fill="#f1b31c" style="fill: var(--color15, #f1b31c)" d="M7.446 22.898c0.069 0.23 0.279 0.395 0.527 0.395 0.066 0 0.13-0.012 0.189-0.033l-0.004 0.001 2.682-0.822c0.383-0.131 0.71-0.343 0.971-0.618l0.001-0.001 2.272-2.3-0.937-0.083-1.775 1.796c-0.262 0.276-0.589 0.488-0.955 0.614l-0.017 0.005-1.668 0.623z"></path>
<path fill="none" stroke="#000" stroke-width="0.8889" stroke-miterlimit="4" stroke-linecap="round" stroke-linejoin="round" style="stroke: var(--color1, #000)" d="M21.439 25.035v-18.273h-11.044v5.818"></path>
<path fill="none" stroke="#000" stroke-width="0.8889" stroke-miterlimit="4" stroke-linecap="round" stroke-linejoin="round" style="stroke: var(--color1, #000)" d="M20.172 26.556h6.043v-21.968h-20.488v22.057h2.935l1.734-1.316v-1.239"></path>
<path fill="none" stroke="#000" stroke-width="0.8889" stroke-miterlimit="4" stroke-linecap="round" stroke-linejoin="round" style="stroke: var(--color1, #000)" d="M20.119 16.41h-2.355l-2.065-2.37"></path>
<path fill="none" stroke="#000" stroke-width="0.8889" stroke-miterlimit="4" stroke-linecap="round" stroke-linejoin="round" style="stroke: var(--color1, #000)" d="M15.59 12.264s-2.571 0.601-3.15 1.016c-0.74 0.53-2.522 3.183-2.522 3.183"></path>
<path fill="none" stroke="#000" stroke-width="0.8889" stroke-miterlimit="4" stroke-linecap="round" stroke-linejoin="round" style="stroke: var(--color1, #000)" d="M7.446 22.898c0.069 0.23 0.279 0.395 0.527 0.395 0.066 0 0.13-0.012 0.189-0.033l-0.004 0.001 2.682-0.822c0.383-0.131 0.71-0.343 0.971-0.618l0.001-0.001 2.272-2.3"></path>
<path fill="none" stroke="#000" stroke-width="0.8889" stroke-miterlimit="4" stroke-linecap="round" stroke-linejoin="round" style="stroke: var(--color1, #000)" d="M11.622 19.262l-0.991 1.498-2.814 1.364c-0.236 0.095-0.4 0.322-0.4 0.587 0 0.067 0.010 0.131 0.030 0.191l-0.001-0.004"></path>
<path fill="none" stroke="#000" stroke-width="0.8889" stroke-miterlimit="4" stroke-linecap="round" stroke-linejoin="round" style="stroke: var(--color1, #000)" d="M15.689 16.352v0.984l1.849 2.278c0.188 0.348 0.309 0.758 0.335 1.194l0 0.008 0.18 4.067c0.038 0.791-0.366 1.209-0.771 1.209-0.431 0-0.765-0.406-0.837-1.17l-0.468-3.849-3.074-2.619c-0.296-0.257-0.486-0.631-0.495-1.050l-0-0.002c0.016-0.426 0.14-0.819 0.346-1.158l-0.006 0.011 1.464-2.643c0.507-1.014 1.003-1.374 1.672-1.374 0.66 0.008 1.192 0.545 1.192 1.206 0 0.008-0 0.017-0 0.025l0-0.001"></path>
<path fill="none" stroke="#000" stroke-width="0.8889" stroke-miterlimit="4" stroke-linecap="round" stroke-linejoin="round" style="stroke: var(--color1, #000)" d="M16.752 10.523c0 0 0-0 0-0 0-0.802 0.65-1.451 1.451-1.451s1.451 0.65 1.451 1.451c0 0.802-0.65 1.451-1.451 1.451v0"></path>
</symbol>
</defs>
</svg>
